<svg width="40" height="40" viewBox="0 0 40 40" fill="none" xmlns="http://www.w3.org/2000/svg">
<g clip-path="url(#clip0_17_16)">
<path d="M15.6741 17.5251C15.2185 17.0695 15.2185 16.3308 15.6741 15.8752C16.1297 15.4196 16.8684 15.4196 17.324 15.8752L19.7989 18.3501L22.2738 15.8752C22.7294 15.4196 23.4681 15.4196 23.9237 15.8752C24.3793 16.3308 24.3793 17.0695 23.9237 17.5251L21.4488 20L23.9237 22.4749C24.3793 22.9305 24.3793 23.6692 23.9237 24.1248C23.4681 24.5804 22.7294 24.5804 22.2738 24.1248L19.7989 21.6499L17.324 24.1248C16.8684 24.5804 16.1297 24.5804 15.6741 24.1248C15.2185 23.6692 15.2185 22.9305 15.6741 22.4749L18.149 20L15.6741 17.5251Z" fill="#FF4747"/>
<path fill-rule="evenodd" clip-rule="evenodd" d="M28.8735 10.9255C33.8852 15.9372 33.8852 24.0628 28.8735 29.0745C23.8618 34.0863 15.7361 34.0862 10.7244 29.0745C5.71271 24.0628 5.71271 15.9372 10.7244 10.9255C15.7361 5.91376 23.8618 5.91374 28.8735 10.9255ZM12.38 27.419C16.4774 31.5164 23.1206 31.5164 27.218 27.419C31.3154 23.3216 31.3154 16.6784 27.218 12.581C23.1206 8.4836 16.4774 8.48361 12.38 12.581C8.2826 16.6784 8.2826 23.3216 12.38 27.419Z" fill="#FF4747"/>
</g>
<defs>
<clipPath id="clip0_17_16">
<rect width="28" height="28" fill="white" transform="translate(0 20) rotate(-45)"/>
</clipPath>
</defs>
</svg>
