<svg width="19" height="20" viewBox="0 0 19 20" fill="none" xmlns="http://www.w3.org/2000/svg">
<path d="M15.0416 2.5H3.95825C2.83867 2.5 2.27887 2.5 1.93106 2.8435C1.58325 3.187 1.58325 3.73985 1.58325 4.84555V5.4204C1.58325 6.28527 1.58325 6.7177 1.78877 7.07618C1.99429 7.43467 2.36975 7.65715 3.12068 8.10213L5.42683 9.46867C5.93066 9.76717 6.18257 9.9165 6.36295 10.0813C6.73858 10.4246 6.96982 10.8279 7.0746 11.3227C7.12492 11.5602 7.12492 11.8382 7.12492 12.3941V14.6187C7.12492 15.3767 7.12492 15.7556 7.32435 16.0511C7.5238 16.3465 7.87802 16.4923 8.58649 16.7838C10.0737 17.3958 10.8173 17.7018 11.3462 17.3537C11.8749 17.0055 11.8749 16.2099 11.8749 14.6187V12.3941C11.8749 11.8382 11.8749 11.5602 11.9253 11.3227C12.03 10.8279 12.2613 10.4246 12.6369 10.0813C12.8172 9.9165 13.0691 9.76717 13.573 9.46867L15.8792 8.10213C16.6301 7.65715 17.0056 7.43467 17.2111 7.07618C17.4166 6.7177 17.4166 6.28527 17.4166 5.4204V4.84555C17.4166 3.73985 17.4166 3.187 17.0688 2.8435C16.7209 2.5 16.1612 2.5 15.0416 2.5Z" fill="#767676"/>
</svg>
