<svg width="22" height="22" viewBox="0 0 22 22" fill="none" xmlns="http://www.w3.org/2000/svg">
<path d="M7.10418 2.29163C7.10418 1.91193 6.79638 1.60413 6.41668 1.60413C6.03699 1.60413 5.72918 1.91193 5.72918 2.29163V3.73928C4.4098 3.84493 3.54364 4.10421 2.90729 4.74056C2.27094 5.37691 2.01165 6.24307 1.90601 7.56246H20.094C19.9884 6.24307 19.7291 5.37691 19.0927 4.74056C18.4564 4.10421 17.5902 3.84493 16.2709 3.73928V2.29163C16.2709 1.91193 15.963 1.60413 15.5834 1.60413C15.2037 1.60413 14.8959 1.91193 14.8959 2.29163V3.67845C14.286 3.66663 13.6024 3.66663 12.8334 3.66663H9.16669C8.39757 3.66663 7.71402 3.66663 7.10418 3.67845V2.29163Z" fill="#525252"/>
<path fill-rule="evenodd" clip-rule="evenodd" d="M1.83325 11C1.83325 10.2309 1.83325 9.54736 1.84508 8.9375H20.1548C20.1666 9.54736 20.1666 10.2309 20.1666 11V12.8333C20.1666 16.2903 20.1666 18.0188 19.0926 19.0927C18.0187 20.1667 16.2902 20.1667 12.8333 20.1667H9.16659C5.70962 20.1667 3.98114 20.1667 2.90719 19.0927C1.83325 18.0188 1.83325 16.2903 1.83325 12.8333V11ZM15.5833 12.8333C16.0895 12.8333 16.4999 12.4229 16.4999 11.9167C16.4999 11.4104 16.0895 11 15.5833 11C15.077 11 14.6666 11.4104 14.6666 11.9167C14.6666 12.4229 15.077 12.8333 15.5833 12.8333ZM15.5833 16.5C16.0895 16.5 16.4999 16.0896 16.4999 15.5833C16.4999 15.0771 16.0895 14.6667 15.5833 14.6667C15.077 14.6667 14.6666 15.0771 14.6666 15.5833C14.6666 16.0896 15.077 16.5 15.5833 16.5ZM11.9166 11.9167C11.9166 12.4229 11.5062 12.8333 10.9999 12.8333C10.4936 12.8333 10.0833 12.4229 10.0833 11.9167C10.0833 11.4104 10.4936 11 10.9999 11C11.5062 11 11.9166 11.4104 11.9166 11.9167ZM11.9166 15.5833C11.9166 16.0896 11.5062 16.5 10.9999 16.5C10.4936 16.5 10.0833 16.0896 10.0833 15.5833C10.0833 15.0771 10.4936 14.6667 10.9999 14.6667C11.5062 14.6667 11.9166 15.0771 11.9166 15.5833ZM6.41659 12.8333C6.92284 12.8333 7.33325 12.4229 7.33325 11.9167C7.33325 11.4104 6.92284 11 6.41659 11C5.91033 11 5.49992 11.4104 5.49992 11.9167C5.49992 12.4229 5.91033 12.8333 6.41659 12.8333ZM6.41659 16.5C6.92284 16.5 7.33325 16.0896 7.33325 15.5833C7.33325 15.0771 6.92284 14.6667 6.41659 14.6667C5.91033 14.6667 5.49992 15.0771 5.49992 15.5833C5.49992 16.0896 5.91033 16.5 6.41659 16.5Z" fill="#525252"/>
</svg>
