<svg width="17" height="16" viewBox="0 0 17 16" fill="none" xmlns="http://www.w3.org/2000/svg">
<rect width="17" height="16" rx="4" fill="#013241"/>
<g clip-path="url(#clip0_36_1166)">
<path d="M3.5 8V7.38C3.5 6.68667 3.74333 6.09667 4.23 5.61C4.71667 5.12333 5.30667 4.88 6 4.88C6.21333 4.88 6.44 4.91667 6.68 4.99C6.8 4.41667 7.09 3.94333 7.55 3.57C8.01 3.19667 8.53667 3.00667 9.13 3C9.81667 3 10.4033 3.24667 10.89 3.74C11.3767 4.23333 11.6233 4.82 11.63 5.5C11.63 5.68667 11.5967 5.9 11.53 6.14C11.5767 6.13333 11.61 6.13 11.63 6.13C12.1433 6.13 12.5833 6.31333 12.95 6.68C13.3167 7.04667 13.5 7.48667 13.5 8V8.63C13.5 9.15 13.3167 9.59 12.95 9.95C12.5833 10.31 12.1433 10.4933 11.63 10.5H11.51C11.57 10.3333 11.6067 10.1833 11.62 10.05C11.64 9.77667 11.6067 9.51 11.52 9.25C11.4333 8.99 11.2867 8.76 11.08 8.56L9.83 7.31C9.46333 6.93667 9.02 6.75 8.5 6.75C7.98 6.75 7.54 6.93333 7.18 7.3L5.93 8.55C5.73 8.75 5.58333 8.98333 5.49 9.25C5.39667 9.51667 5.36333 9.78667 5.39 10.06C5.39667 10.18 5.42333 10.31 5.47 10.45C4.90333 10.3233 4.43333 10.0333 4.06 9.58C3.68667 9.12667 3.5 8.6 3.5 8ZM6.63 9.94C6.61 9.74 6.67 9.57333 6.81 9.44L8.06 8.19C8.18667 8.06333 8.33333 8 8.5 8C8.67333 8 8.82 8.06333 8.94 8.19L10.19 9.44C10.33 9.57333 10.3933 9.74 10.38 9.94C10.3733 10 10.3567 10.06 10.33 10.12C10.2833 10.2333 10.2067 10.3267 10.1 10.4C9.99333 10.4733 9.87667 10.5067 9.75 10.5H9.13V12.38C9.13 12.5533 9.06667 12.7 8.94 12.82C8.81333 12.94 8.66667 13 8.5 13C8.33333 13 8.18667 12.94 8.06 12.82C7.93333 12.7 7.87333 12.5533 7.88 12.38V10.5H7.25C7.12333 10.5 7.01 10.4667 6.91 10.4C6.81 10.3333 6.73 10.24 6.67 10.12C6.65 10.06 6.63667 10 6.63 9.94Z" fill="white"/>
</g>
<defs>
<clipPath id="clip0_36_1166">
<rect width="10" height="10" fill="white" transform="translate(3.5 3)"/>
</clipPath>
</defs>
</svg>
