<svg width="18" height="18" viewBox="0 0 18 18" fill="none" xmlns="http://www.w3.org/2000/svg">
<path d="M13.9093 8.4571V15.0053C13.9088 15.2042 13.8296 15.3947 13.689 15.5353C13.5484 15.6759 13.3579 15.7551 13.159 15.7556H4.84114C4.64229 15.7551 4.45174 15.6759 4.31114 15.5353C4.17053 15.3947 4.09132 15.2042 4.09082 15.0053V8.4571C4.09132 8.25826 4.17053 8.0677 4.31114 7.9271C4.45174 7.7865 4.64229 7.70729 4.84114 7.70679H5.65208V6.03184C5.65208 5.59217 5.73868 5.15681 5.90693 4.75061C6.07519 4.34442 6.3218 3.97534 6.63269 3.66444C6.94358 3.35355 7.31266 3.10694 7.71886 2.93869C8.12506 2.77044 8.56042 2.68384 9.00008 2.68384C9.43975 2.68384 9.87511 2.77044 10.2813 2.93869C10.6875 3.10694 11.0566 3.35355 11.3675 3.66444C11.6784 3.97534 11.925 4.34442 12.0932 4.75061C12.2615 5.15681 12.3481 5.59217 12.3481 6.03184V7.70679H13.159C13.3579 7.70729 13.5484 7.7865 13.689 7.9271C13.8296 8.0677 13.9088 8.25826 13.9093 8.4571ZM11.2984 6.03184C11.2984 5.42229 11.0563 4.8377 10.6252 4.40668C10.1942 3.97567 9.60964 3.73352 9.00008 3.73352C8.39053 3.73352 7.80595 3.97567 7.37493 4.40668C6.94391 4.8377 6.70177 5.42229 6.70177 6.03184V7.70679H11.2984V6.03184ZM10.0498 10.8663C10.0498 10.6784 9.99937 10.494 9.90382 10.3323C9.80826 10.1706 9.67106 10.0374 9.50653 9.94681C9.34199 9.85618 9.15615 9.81137 8.96839 9.81704C8.78064 9.82271 8.59784 9.87866 8.43907 9.97905C8.28031 10.0794 8.15139 10.2206 8.06578 10.3878C7.98016 10.555 7.94097 10.7421 7.95231 10.9296C7.96365 11.1171 8.0251 11.2981 8.13025 11.4538C8.23539 11.6095 8.38038 11.734 8.55008 11.8146V13.5663C8.55008 13.6856 8.59749 13.8001 8.68189 13.8845C8.76628 13.9689 8.88074 14.0163 9.00008 14.0163C9.11943 14.0163 9.23389 13.9689 9.31828 13.8845C9.40267 13.8001 9.45008 13.6856 9.45008 13.5663V11.8146C9.62952 11.7294 9.78111 11.5951 9.88726 11.4273C9.99342 11.2594 10.0498 11.0649 10.0498 10.8663Z" fill="#9BA1B2"/>
</svg>
